<?xml version="1.0" encoding="UTF-8" standalone="no"?>
<!-- Created with Inkscape (http://www.inkscape.org/) -->

<svg
   width="1280"
   height="640"
   viewBox="0 0 1280 640"
   version="1.1"
   id="svg5"
   inkscape:version="1.1.2 (b8e25be833, 2022-02-05)"
   sodipodi:docname="social.svg"
   xmlns:inkscape="http://www.inkscape.org/namespaces/inkscape"
   xmlns:sodipodi="http://sodipodi.sourceforge.net/DTD/sodipodi-0.dtd"
   xmlns="http://www.w3.org/2000/svg"
   xmlns:svg="http://www.w3.org/2000/svg">
  <sodipodi:namedview
     id="namedview7"
     pagecolor="#505050"
     bordercolor="#ffffff"
     borderopacity="1"
     inkscape:pageshadow="0"
     inkscape:pageopacity="0"
     inkscape:pagecheckerboard="1"
     inkscape:document-units="px"
     showgrid="false"
     inkscape:snap-page="true"
     inkscape:zoom="0.48055556"
     inkscape:cx="787.63006"
     inkscape:cy="274.68208"
     inkscape:window-width="1366"
     inkscape:window-height="705"
     inkscape:window-x="-8"
     inkscape:window-y="-8"
     inkscape:window-maximized="1"
     inkscape:current-layer="layer1" />
  <defs
     id="defs2">
    <rect
       x="1007.1676"
       y="597.22543"
       width="688.78613"
       height="104.04624"
       id="rect10337" />
  </defs>
  <g
     inkscape:label="Calque 1"
     inkscape:groupmode="layer"
     id="layer1">
    <rect
       style="fill:#ffffff;fill-opacity:0.99812;stroke-width:2.99811"
       id="rect846"
       width="1280"
       height="640"
       x="0"
       y="0" />
    <path
       id="rect968"
       style="fill:#ff8c00;fill-opacity:0.99812;stroke-width:3"
       d="m 0,285.0867 c 0,0 237.3663,-39.82132 356.99422,-37.45665 193.21677,3.8193 380.59415,89.18107 573.75722,83.23699 C 1049.6158,327.20931 1280,258.03468 1280,258.03468 V 640 H 0 Z"
       sodipodi:nodetypes="caacccc" />
    <text
       xml:space="preserve"
       style="font-size:226.528px;line-height:1.25;font-family:Calibri;-inkscape-font-specification:Calibri;stroke-width:2.35967;fill:#ff8c00"
       x="371.92789"
       y="374.18405"
       id="text2535"><tspan
         sodipodi:role="line"
         id="tspan2533"
         x="371.92789"
         y="374.18405"
         style="stroke-width:2.35967;fill:#ff8c00">HTML</tspan></text>
    <path
       id="path3002"
       style="fill:#fffafa;fill-opacity:0.99812;stroke-width:3"
       d="M 390.95312 249.16016 L 390.95312 371.30859 C 390.95313 371.89851 391.09957 372.41498 391.39453 372.85742 C 391.68949 373.29986 392.20596 373.66793 392.94336 373.96289 C 393.68076 374.18411 394.67611 374.36815 395.92969 374.51562 C 397.18326 374.73684 398.69509 374.84766 400.46484 374.84766 C 402.30833 374.84766 403.82017 374.73684 405 374.51562 C 406.25357 374.36815 407.24893 374.18411 407.98633 373.96289 C 408.72372 373.66793 409.2402 373.29986 409.53516 372.85742 C 409.83011 372.41498 409.97656 371.89851 409.97656 371.30859 L 409.97656 307.81836 L 475.12695 307.81836 L 475.12695 371.30859 C 475.12695 371.89851 475.2734 372.41498 475.56836 372.85742 C 475.86332 373.29986 476.37979 373.66793 477.11719 373.96289 C 477.85458 374.18411 478.81431 374.36815 479.99414 374.51562 C 481.17397 374.73684 482.72144 374.84766 484.63867 374.84766 C 486.40842 374.84766 487.88267 374.73684 489.0625 374.51562 C 490.31607 374.36815 491.31143 374.18411 492.04883 373.96289 C 492.78622 373.66793 493.3027 373.29986 493.59766 372.85742 C 493.89261 372.41498 494.04102 371.89851 494.04102 371.30859 L 494.04102 261.94922 C 487.74063 260.86673 481.43444 259.85365 475.12695 258.86523 L 475.12695 291.22656 L 409.97656 291.22656 L 409.97656 250.79297 C 403.63737 250.22197 397.30312 249.58209 390.95312 249.16016 z M 558.74805 274.36719 L 558.74805 371.30859 C 558.74805 371.89851 558.89449 372.41498 559.18945 372.85742 C 559.48441 373.29986 560.00089 373.66793 560.73828 373.96289 C 561.47568 374.18411 562.47104 374.36815 563.72461 374.51562 C 564.97818 374.73684 566.49002 374.84766 568.25977 374.84766 C 570.10326 374.84766 571.61509 374.73684 572.79492 374.51562 C 574.04849 374.36815 575.04385 374.18411 575.78125 373.96289 C 576.51865 373.66793 577.03512 373.29986 577.33008 372.85742 C 577.62504 372.41498 577.77148 371.89851 577.77148 371.30859 L 577.77148 278.36914 C 571.43256 277.00571 565.09044 275.69072 558.74805 274.36719 z M 642.47852 292.59961 L 642.47852 371.30859 C 642.47852 371.89851 642.58933 372.41498 642.81055 372.85742 C 643.10551 373.29986 643.58439 373.66793 644.24805 373.96289 C 644.98544 374.18411 645.94321 374.36815 647.12305 374.51562 C 648.30288 374.73684 649.77908 374.84766 651.54883 374.84766 C 653.39232 374.84766 654.90415 374.73684 656.08398 374.51562 C 657.26382 374.36815 658.22159 374.18411 658.95898 373.96289 C 659.69638 373.66793 660.21285 373.29986 660.50781 372.85742 C 660.80277 372.41498 660.94922 371.89851 660.94922 371.30859 L 660.94922 296.55273 C 654.79397 295.20377 648.63349 293.96374 642.47852 292.59961 z M 682.27539 301.10547 L 709.83984 371.86133 C 709.98732 372.30377 710.24458 372.70943 710.61328 373.07812 C 711.05572 373.44682 711.64542 373.77926 712.38281 374.07422 C 713.12021 374.29544 714.04234 374.47947 715.14844 374.62695 C 716.25453 374.77443 717.58233 374.84766 719.13086 374.84766 C 720.60565 374.84766 721.85827 374.77443 722.89062 374.62695 C 723.99672 374.55321 724.91885 374.40481 725.65625 374.18359 C 726.46739 373.88864 727.05708 373.55815 727.42578 373.18945 C 727.86822 372.82076 728.20066 372.37751 728.42188 371.86133 L 751.55469 315.05664 C 745.94384 314.0512 740.33982 312.92723 734.73242 311.86133 L 720.34766 346.31055 L 719.79492 346.31055 L 703.51758 305.64062 C 696.4346 304.1807 689.35568 302.61996 682.27539 301.10547 z M 779.63477 319.71875 L 779.63477 371.30859 C 779.63477 371.89851 779.78121 372.41498 780.07617 372.85742 C 780.37113 373.29986 780.85002 373.66793 781.51367 373.96289 C 782.25107 374.18411 783.21079 374.36815 784.39062 374.51562 C 785.6442 374.73684 787.11844 374.84766 788.81445 374.84766 C 790.65794 374.84766 792.13219 374.73684 793.23828 374.51562 C 794.41811 374.36815 795.37784 374.18411 796.11523 373.96289 C 796.85263 373.66793 797.3691 373.29986 797.66406 372.85742 C 797.95902 372.41498 798.10547 371.89851 798.10547 371.30859 L 798.10547 322.42773 C 791.94642 321.55955 785.78775 320.68813 779.63477 319.71875 z M 836.15625 327.01367 L 836.15625 366.44141 C 836.15625 369.31725 836.8924 371.34556 838.36719 372.52539 C 839.91572 373.63148 841.53836 374.18359 843.23438 374.18359 L 906.50391 374.18359 C 907.16756 374.18359 907.71967 374.03715 908.16211 373.74219 C 908.67829 373.37349 909.08395 372.85702 909.37891 372.19336 C 909.7476 371.45596 910.00486 370.60705 910.15234 369.64844 C 910.29982 368.61608 910.375 367.36346 910.375 365.88867 C 910.375 364.41388 910.29982 363.15931 910.15234 362.12695 C 910.00486 361.0946 909.7476 360.28328 909.37891 359.69336 C 909.08395 359.0297 908.67829 358.55082 908.16211 358.25586 C 907.71967 357.88716 907.16756 357.70312 906.50391 357.70312 L 855.17969 357.70312 L 855.17969 328.83008 C 848.83191 328.33389 842.49512 327.65399 836.15625 327.01367 z " />
    <text
       xml:space="preserve"
       id="text10335"
       style="line-height:1.25;font-family:Calibri;font-size:96px;-inkscape-font-specification:Calibri;white-space:pre;shape-inside:url(#rect10337)" />
    <text
       xml:space="preserve"
       style="font-style:normal;font-variant:normal;font-weight:normal;font-stretch:normal;font-size:43.2702px;line-height:1.25;font-family:'Franklin Gothic Heavy';-inkscape-font-specification:'Franklin Gothic Heavy, ';fill:#ffe4c4;stroke-width:0.450731"
       x="411.51291"
       y="576.66815"
       id="text11003"
       inkscape:transform-center-x="110.28902"
       inkscape:transform-center-y="-10.404624"><tspan
         sodipodi:role="line"
         id="tspan11001"
         x="411.51291"
         y="576.66815"
         style="font-style:normal;font-variant:normal;font-weight:normal;font-stretch:normal;font-family:'Franklin Gothic Heavy';-inkscape-font-specification:'Franklin Gothic Heavy, ';fill:#ffe4c4;stroke-width:0.450731">don't repeat yourself</tspan></text>
  </g>
</svg>
